<svg xmlns="http://www.w3.org/2000/svg" xmlns:xlink="http://www.w3.org/1999/xlink"
     viewBox="0 0 512 230">
	<defs>
		<radialGradient id="a" cx="102.3" cy="179.05" fx="93.35212468415779" r="11.12"
		                gradientTransform="translate(388.2 15.82) rotate(78.38) scale(1 1.75)"
		                gradientUnits="userSpaceOnUse">
			<stop offset="0" stop-color="#90a4ae"/>
			<stop offset="1" stop-color="#546e7a"/>
		</radialGradient>
		<radialGradient id="b" cx="409.7" cy="179.05" fx="397.08964830365863"
		                fy="167.52338799434392" r="19.63"
		                gradientTransform="matrix(0.99, 0.17, -0.1, 0.56, 22.77, 10.07)"
		                xlink:href="#a"/>
		<linearGradient id="c" x1="168" y1="106" x2="344" y2="106" gradientUnits="userSpaceOnUse">
			<stop offset="0" stop-color="#78909c"/>
			<stop offset="0.1" stop-color="#7d94a0"/>
			<stop offset="0.22" stop-color="#8ca0ab"/>
			<stop offset="0.25" stop-color="#90a4ae"/>
			<stop offset="0.33" stop-color="#8095a0"/>
			<stop offset="0.49" stop-color="#68808b"/>
			<stop offset="0.63" stop-color="#59737e"/>
			<stop offset="0.75" stop-color="#546e7a"/>
			<stop offset="0.83" stop-color="#59737f"/>
			<stop offset="0.93" stop-color="#68808c"/>
			<stop offset="1" stop-color="#78909c"/>
		</linearGradient>
		<radialGradient id="d" cx="256" cy="104.71" r="29.21"
		                gradientTransform="matrix(0, 1.13, -2.98, 0, 568.49, -188.75)"
		                gradientUnits="userSpaceOnUse">
			<stop offset="0.25" stop-color="#78909c"/>
			<stop offset="0.5" stop-color="#7d94a0"/>
			<stop offset="0.81" stop-color="#8ca0ab"/>
			<stop offset="0.88" stop-color="#90a4ae"/>
		</radialGradient>
		<linearGradient id="e" x1="172" y1="64" x2="340" y2="64" gradientUnits="userSpaceOnUse">
			<stop offset="0" stop-color="#455a64"/>
			<stop offset="0.08" stop-color="#485f69"/>
			<stop offset="0.17" stop-color="#536c78"/>
			<stop offset="0.25" stop-color="#607d8b"/>
			<stop offset="0.27" stop-color="#5c7885"/>
			<stop offset="0.41" stop-color="#445964"/>
			<stop offset="0.53" stop-color="#34444c"/>
			<stop offset="0.65" stop-color="#2a373d"/>
			<stop offset="0.75" stop-color="#263238"/>
			<stop offset="0.82" stop-color="#2a373d"/>
			<stop offset="0.91" stop-color="#34444c"/>
			<stop offset="1" stop-color="#455a64"/>
			<stop offset="1" stop-color="#455a64"/>
		</linearGradient>
	</defs>
	<title>Base</title>
	<path d="M185,36.29H143.44L122.26,26h40.19L185,36.29m78.66,0H222.1L198.29,26h40.19l25.2,10.29m78.68,0H300.77L274.32,26h40.2l27.84,10.29m78,14.45L388.48,39.48l-1.36-3.19h-7.67L350.36,26h40.19l20.69,7,9.08,17.76M113.37,63.25,91.49,51.12l9.11-17.81,20.94,10.81-8.17,19.13m327.4,27.48L404.32,76.55,395.5,55.92l33.87,12.51,11.4,22.3M94.83,106.62,71,91.2,82.42,68.84l22.77,13.54L94.83,106.62M467,142.08l-42.58-18.39-11.28-26.4,39.11,15.95L467,142.08M70.77,162.94,44.65,142.69l14.79-28.92,24.88,17.46L70.77,162.94M502,210.45l-51.06-24.8-14.95-35,46.2,21.05L502,210.45M96.75,230H28.91L9.57,211.29l19.88-38.87,27.29,23.35-3.18,7.43H65.42L96.75,230m128.34,0H157.24l-34.56-26.8h64.21l38.2,26.8m128.32,0H285.58l-41.44-26.8h64.2L353.41,230m128.34,0H413.92l-48.31-26.8h64.2L481.75,230"
	      fill="#ffeb3b"/>
	<path d="M411.24,33l-20.69-7h17.12l3.57,7M222.1,36.29H185L162.45,26h35.84L222.1,36.29m78.67,0H263.68L238.48,26h35.84l26.45,10.29m78.68,0H342.36L314.52,26h35.84l29.09,10.29M121.54,44.12,100.6,33.31,104.34,26h17.92l21.18,10.29H124.89l-3.35,7.83M429.37,68.43,395.5,55.92l-7-16.44,31.84,11.26,9.05,17.69M105.19,82.38,82.42,68.84l9.07-17.72,21.88,12.13-8.18,19.13m347.1,30.86L413.18,97.29l-8.86-20.74,36.45,14.18,11.52,22.51m-368,18L59.44,113.77,71,91.2l23.84,15.42L84.32,131.23m397.87,40.48L436,150.66l-11.53-27L467,142.08l15.15,29.63M56.74,195.77,29.45,172.42l15.2-29.73,26.12,20.25-14,32.83M28.91,230H0l9.57-18.71L28.91,230m128.33,0H96.75L65.42,203.2h57.26L157.24,230m128.34,0H225.09l-38.2-26.8h57.25L285.58,230m128.34,0H353.41l-45.07-26.8h57.27L413.92,230M512,230H481.75l-51.94-26.8h28.63l-7.5-17.55L502,210.45,512,230"
	      fill="#263238"/>
	<path d="M149.23,41.78a32,32,0,0,0-5.35.45,26.42,26.42,0,0,0-4.7,1.2,15.15,15.15,0,0,0-3.56,1.81,5.32,5.32,0,0,0-1.93,2.25,2.51,2.51,0,0,0,.2,2.28,5.52,5.52,0,0,0,2.24,1.88A14.7,14.7,0,0,0,140,52.93a26.85,26.85,0,0,0,5.22.47,32.09,32.09,0,0,0,5.54-.47,25.65,25.65,0,0,0,4.79-1.28,14.1,14.1,0,0,0,3.52-1.88,4.8,4.8,0,0,0,1.76-2.28,2.52,2.52,0,0,0-.39-2.25,6,6,0,0,0-2.33-1.81,15.37,15.37,0,0,0-3.87-1.2,26.94,26.94,0,0,0-5.05-.45m213.55,0a27,27,0,0,0-5.06.45,15.5,15.5,0,0,0-3.87,1.2,6.14,6.14,0,0,0-2.33,1.81,2.59,2.59,0,0,0-.39,2.25,4.93,4.93,0,0,0,1.76,2.28,14.1,14.1,0,0,0,3.52,1.88,25.77,25.77,0,0,0,4.8,1.28,32,32,0,0,0,5.54.47,26.85,26.85,0,0,0,5.22-.47,14.9,14.9,0,0,0,3.92-1.28,5.55,5.55,0,0,0,2.23-1.88,2.51,2.51,0,0,0,.2-2.28,5.32,5.32,0,0,0-1.93-2.25,15,15,0,0,0-3.56-1.81,26.42,26.42,0,0,0-4.7-1.2,32,32,0,0,0-5.35-.45M106.26,167.46a34.1,34.1,0,0,0-7.59.87,32.07,32.07,0,0,0-6.84,2.38,22.71,22.71,0,0,0-5.41,3.58,12.06,12.06,0,0,0-3.21,4.47,6.81,6.81,0,0,0-.23,4.56,7.93,7.93,0,0,0,2.75,3.78A15.06,15.06,0,0,0,91,189.69a26.44,26.44,0,0,0,7.32,1,34.07,34.07,0,0,0,8-1,31.58,31.58,0,0,0,7.06-2.59,21.38,21.38,0,0,0,5.33-3.78,11.09,11.09,0,0,0,2.89-4.56,6.55,6.55,0,0,0-.16-4.47,8.37,8.37,0,0,0-3-3.58,16,16,0,0,0-5.22-2.38,26.84,26.84,0,0,0-7-.87m299.48,0a26.84,26.84,0,0,0-7,.87,16,16,0,0,0-5.22,2.38,8.44,8.44,0,0,0-2.95,3.58,6.55,6.55,0,0,0-.16,4.47,11.09,11.09,0,0,0,2.89,4.56,21.38,21.38,0,0,0,5.33,3.78,31.58,31.58,0,0,0,7.06,2.59,34.07,34.07,0,0,0,8,1,26.46,26.46,0,0,0,7.33-1,15.06,15.06,0,0,0,5.28-2.59,7.86,7.86,0,0,0,2.75-3.78,6.81,6.81,0,0,0-.23-4.56,12,12,0,0,0-3.21-4.47,22.51,22.51,0,0,0-5.41-3.58,32.07,32.07,0,0,0-6.84-2.38,34.26,34.26,0,0,0-7.6-.87m52.7,35.74H53.56l3.18-7.43,14-32.83,13.55-31.71,10.51-24.61,10.36-24.24,8.18-19.13,8.17-19.13,3.35-7.83H387.12l1.36,3.19,7,16.44,8.82,20.63,8.86,20.74,11.28,26.4,11.53,27,14.95,35,7.5,17.55"
	      fill="#607d8b"/>
	<path d="M98.33,190.65a26.44,26.44,0,0,1-7.32-1,15.06,15.06,0,0,1-5.28-2.59A7.93,7.93,0,0,1,83,183.32a6.81,6.81,0,0,1,.23-4.56,12.06,12.06,0,0,1,3.21-4.47,22.71,22.71,0,0,1,5.41-3.58,32.07,32.07,0,0,1,6.84-2.38,34.1,34.1,0,0,1,7.59-.87,26.84,26.84,0,0,1,7,.87,16,16,0,0,1,5.22,2.38,8.37,8.37,0,0,1,3,3.58,6.55,6.55,0,0,1,.16,4.47,11.09,11.09,0,0,1-2.89,4.56,21.38,21.38,0,0,1-5.33,3.78,31.58,31.58,0,0,1-7.06,2.59,34.07,34.07,0,0,1-8,1"
	      fill="url(#a)"/>
	<path d="M413.67,190.65a34.07,34.07,0,0,1-8-1,31.58,31.58,0,0,1-7.06-2.59,21.38,21.38,0,0,1-5.33-3.78,11.09,11.09,0,0,1-2.89-4.56,6.55,6.55,0,0,1,.16-4.47,8.44,8.44,0,0,1,2.95-3.58,16,16,0,0,1,5.22-2.38,26.84,26.84,0,0,1,7-.87,34.26,34.26,0,0,1,7.6.87,32.07,32.07,0,0,1,6.84,2.38,22.51,22.51,0,0,1,5.41,3.58,12,12,0,0,1,3.21,4.47,6.81,6.81,0,0,1,.23,4.56,7.86,7.86,0,0,1-2.75,3.78,15.06,15.06,0,0,1-5.28,2.59,26.46,26.46,0,0,1-7.33,1"
	      fill="url(#b)"/>
	<path d="M256,68c-48.6,0-88,15.09-88,33.7v8.6c0,18.61,39.4,33.7,88,33.7s88-15.09,88-33.7v-8.6C344,83.09,304.6,68,256,68Z"
	      fill="url(#c)"/>
	<ellipse cx="256" cy="101.7" rx="88" ry="33.7" fill="url(#d)"/>
	<path d="M256,0c-46.39,0-84,14.33-84,32V96c0,17.67,37.61,32,84,32s84-14.33,84-32V32C340,14.33,302.39,0,256,0Z"
	      fill="url(#e)"/>
</svg>