<svg xmlns="http://www.w3.org/2000/svg" xmlns:xlink="http://www.w3.org/1999/xlink" viewBox="0 0 176 144"><defs><linearGradient id="a" y1="106" x2="176" y2="106" gradientUnits="userSpaceOnUse"><stop offset="0" stop-color="#78909c"/><stop offset="0.1" stop-color="#7d94a0"/><stop offset="0.22" stop-color="#8ca0ab"/><stop offset="0.25" stop-color="#90a4ae"/><stop offset="0.33" stop-color="#8095a0"/><stop offset="0.49" stop-color="#68808b"/><stop offset="0.63" stop-color="#59737e"/><stop offset="0.75" stop-color="#546e7a"/><stop offset="0.83" stop-color="#59737f"/><stop offset="0.93" stop-color="#68808c"/><stop offset="1" stop-color="#78909c"/></linearGradient><radialGradient id="b" cx="88" cy="104.71" r="29.21" gradientTransform="matrix(0, 1.13, -2.98, 0, 400.49, 1.86)" gradientUnits="userSpaceOnUse"><stop offset="0.25" stop-color="#78909c"/><stop offset="0.5" stop-color="#7d94a0"/><stop offset="0.81" stop-color="#8ca0ab"/><stop offset="0.88" stop-color="#90a4ae"/></radialGradient><linearGradient id="c" x1="4" y1="64" x2="172" y2="64" gradientUnits="userSpaceOnUse"><stop offset="0" stop-color="#455a64"/><stop offset="0.08" stop-color="#485f69"/><stop offset="0.17" stop-color="#536c78"/><stop offset="0.25" stop-color="#607d8b"/><stop offset="0.27" stop-color="#5c7885"/><stop offset="0.41" stop-color="#445964"/><stop offset="0.53" stop-color="#34444c"/><stop offset="0.65" stop-color="#2a373d"/><stop offset="0.75" stop-color="#263238"/><stop offset="0.82" stop-color="#2a373d"/><stop offset="0.91" stop-color="#34444c"/><stop offset="1" stop-color="#455a64"/><stop offset="1" stop-color="#455a64"/></linearGradient></defs><title>Stem</title><path d="M88,68C39.4,68,0,83.09,0,101.7v8.6C0,128.91,39.4,144,88,144s88-15.09,88-33.7v-8.6C176,83.09,136.6,68,88,68Z" fill="url(#a)"/><ellipse cx="88" cy="101.7" rx="88" ry="33.7" fill="url(#b)"/><path d="M88,0C41.61,0,4,14.33,4,32V96c0,17.67,37.61,32,84,32s84-14.33,84-32V32C172,14.33,134.39,0,88,0Z" fill="url(#c)"/></svg>